<?xml version="1.0" encoding="UTF-8"?><svg id="Layer_1" xmlns="http://www.w3.org/2000/svg" viewBox="0 0 1921 1081.52"><defs><style>.cls-1{fill:#fff;stroke:#000;stroke-miterlimit:10;}.cls-2{font-family:InterTight-Light, 'Inter Tight';font-size:30px;font-variation-settings:'wght' 300;font-weight:300;glyph-orientation-vertical:0deg;text-orientation:upright;writing-mode:tb;}</style></defs><polygon class="cls-1" points=".5 .76 733.5 313.76 733.5 766.76 .5 1080.76 .5 .76"/><polygon class="cls-1" points="1186.5 313.76 1920.5 .76 1920.5 1080.76 1186.5 766.76 1186.5 313.76"/><text class="cls-2" transform="translate(51.21 326.86)"><tspan x="0" y="0">D</tspan><tspan x="0" y="30"> </tspan><tspan x="0" y="37.5">E</tspan><tspan x="0" y="67.5"> </tspan><tspan x="0" y="75">V</tspan><tspan x="0" y="105"> </tspan><tspan x="0" y="112.5">O</tspan><tspan x="0" y="142.5"> </tspan><tspan x="0" y="150">N</tspan><tspan x="0" y="180" xml:space="preserve">   </tspan><tspan x="0" y="202.5">S</tspan><tspan x="0" y="232.5"> </tspan><tspan x="0" y="240">T</tspan><tspan x="0" y="270"> </tspan><tspan x="0" y="277.5">R</tspan><tspan x="0" y="307.5"> </tspan><tspan x="0" y="315">E</tspan><tspan x="0" y="345"> </tspan><tspan x="0" y="352.5">E</tspan><tspan x="0" y="382.5"> </tspan><tspan x="0" y="390">T</tspan></text></svg>