<svg xmlns="http://www.w3.org/2000/svg" width="150.331" height="100.18" viewBox="0 0 150.331 100.18">
  <g id="Group_4" data-name="Group 4" transform="translate(0.501 0.503)">
    <g id="Group_5" data-name="Group 5" transform="translate(0.815 1.141)">
      <path id="Path_25" data-name="Path 25" d="M8.072,131.624c0-1.99,1.792-3.6,5.362-2.669,3.3.874,4.03,2.471,4.011,3.718-.016,1.2-.708,2.44-.723,3.613a4.856,4.856,0,0,0,3.243,4.422c2.232.825,2.3-1.32,2.316-2.323.089-5.152-2.419-9.022-6.142-12.677-3.558-3.559-7.719-6.6-7.724-10.2,0-2.343,2.881-4.544,9.257-4.618,7.048-.063,10.38,2.565,10.279,7.763a4.631,4.631,0,0,1-5.589,4.708c-3.349-.5-4.077-2.046-4.06-3.283.016-1.195.723-2.616.741-3.832a3.211,3.211,0,0,0-3.327-3.352,2.61,2.61,0,0,0-2.791,2.748c-.032,4.452,2.988,7.675,6.68,11.462,3.559,3.62,7.692,7.679,7.6,12.429-.05,2.993-2.718,5.209-9.149,2.552-6.8-2.9-9.966-6.611-9.984-10.46" transform="translate(-4.044 -55.561)" fill="#727272"/>
      <path id="Path_26" data-name="Path 26" d="M57.635,144.462c.068-3.518,4.164-2.5,4.392-14.3.207-10.805-.938-15.573-5.423-15.657a1.661,1.661,0,0,0-1.854,1.673c-.057,2.8,4.867,7.1,4.805,10.348-.033,1.687-1.548,2.446-3.3,2.2-3.388-.514-4.717-4.719-4.639-8.8.086-4.356,1.792-8.988,4.344-9.026,2.731-.005,4.472.726,7.4.745,2.731.017,4.7-.741,7.427-.745,2.549-.022,4.084,5.366,4.009,10.473-.07,4.78-1.57,9.307-4.989,8.958-1.765-.175-3.249-1.334-3.217-3.086.061-3.284,5.156-7.218,5.206-10.453A1.776,1.776,0,0,0,70,114.823c-4.49-.055-5.816,4.694-6.022,15.575-.227,11.854,3.9,12.52,3.834,16.3-.042,2.487-2.044,3.689-5.18,2.915s-5.047-2.84-5-5.15" transform="translate(-25.862 -55.563)" fill="#727272"/>
      <path id="Path_27" data-name="Path 27" d="M102.553,148.194c.054-3.919,4.216-3.312,4.364-16.208.161-14.127-3.964-12.848-3.91-16.787.046-3.184,5.133-4.3,11.634-4.309,7.474,0,10.592,2.506,10.59,8.034,0,7.643-3.241,15.7-8.726,15.947q-.363.014-.7,0a7.432,7.432,0,0,1-1.718-.261c-.338-.085-.643-.171-.479.267a20.893,20.893,0,0,0,1.041,1.828c3.507,5.877,4.913,7.384,7.445,7.444a18.592,18.592,0,0,0,3.313-.372c.732-.124,1.1.791,1.1,2.126,0,3.061-1.964,8.387-5.984,8.19-5.737-.341-4.356-8.041-6.954-14.52-1.607-4.025-3.3-6.829-3.276-9.535s1.808-3.712,2.792-3.684c2.688.079,1.879,3.049,4.641,3.126,2.236.058,4.017-1.4,4.031-6.08.012-4.481-1.944-6.717-4.327-6.734-3.679,0-8.421,5.151-8.538,15.437-.143,12.919,4.033,13.149,4,17.2-.021,2.662-2.035,4.221-5.224,3.84s-5.149-2.372-5.113-4.946" transform="translate(-51.386 -55.562)" fill="#727272"/>
      <path id="Path_28" data-name="Path 28" d="M154.049,149.845c0-4.1,4.187-4.049,4.138-17.271-.048-13.206-4.163-13.069-4.165-17.185,0-3.922,5.07-4.5,11.571-4.5,7.737.005,9.629.569,9.72,7.427.051,3.823-1.467,7.876-5.4,8.051a2.905,2.905,0,0,1-3.3-2.862c-.027-3.613,6.309-3.758,6.275-6.44a3.229,3.229,0,0,0-3.165-3.281c-5.787.019-9.6,6.63-9.556,18.75,0,.9.007,1.729.078,2.56,0,.32.265.313.4-.01,1.369-3.88,4.047-6.115,6.8-6.22a3.175,3.175,0,0,1,3.452,3.43,2.832,2.832,0,0,1-2.822,3.08,4.205,4.205,0,0,1-.837-.04,13.663,13.663,0,0,0-2.3-.1c-2.466.106-4.663.988-4.35,3.378,1.025,8.039,4.586,12.428,9.5,11.928a3.241,3.241,0,0,0,3.149-3.291c-.034-3-6.455-2.464-6.485-6.115a3.223,3.223,0,0,1,3.275-3.184c3.954-.263,5.584,3.524,5.636,7.357.084,6.568-1.815,7.752-9.739,8.457-6.929.555-11.879.252-11.878-3.913" transform="translate(-77.176 -55.562)" fill="#727272"/>
      <path id="Path_29" data-name="Path 29" d="M202.305,148.038c-.053-3.918,4.1-4.4,3.894-16.787-.2-12.37-4.308-12.139-4.363-16.072-.051-3.756,5.011-4.3,11.513-4.291,7.737.012,9.633.511,9.753,6.492.066,3.329-1.419,6.965-5.321,7.374-1.757.173-3.273-.675-3.306-2.407-.06-3.294,6.248-3.639,6.2-6a3.03,3.03,0,0,0-3.179-2.864c-5.785.027-9.52,6.225-9.334,17.579.014.836.027,1.612.106,2.38.005.3.266.268.392-.044,1.314-3.737,3.954-5.961,6.69-6.237,1.889-.19,3.406.761,3.447,2.826A2.947,2.947,0,0,1,216.029,133a4.508,4.508,0,0,1-.828.041,14.935,14.935,0,0,0-2.275.112c-2.442.314-4.613,1.328-4.275,3.528,1.107,7.409,4.671,10.945,9.489,9.732a3.628,3.628,0,0,0,3.067-3.4c-.047-2.64-6.361-1.333-6.428-4.665-.033-1.733,1.449-2.939,3.206-3.228,3.9-.628,5.522,2.5,5.59,5.842.106,5.722-1.722,7.106-9.5,9-6.806,1.6-11.721,2.053-11.773-1.933" transform="translate(-101.133 -55.562)" fill="#727272"/>
      <path id="Path_30" data-name="Path 30" d="M256.641,141c-.055-3.183,3.958-4.365,3.8-14.073-.139-8.922-1.432-12.8-5.914-12.7a1.665,1.665,0,0,0-1.786,1.707c.058,2.807,5.105,5.89,5.147,8.587.025,1.457-1.439,2.556-3.179,2.855-3.367.6-4.863-3.225-4.945-7.389-.088-4.451,1.433-9.134,3.985-9.1,2.732.006,4.5.638,7.422.61,2.729-.028,4.672-.618,7.4-.61,2.557.055,4.172,3.541,4.166,6.8-.005,3.058-1.385,6.375-4.7,7.142-1.718.375-3.2-.09-3.213-1.443-.037-2.64,4.883-6.3,4.879-8.42,0-.787-.719-1.3-1.82-1.254-4.474.124-5.65,4.028-5.52,12.83.148,9.635,4.121,8.139,4.144,10.911.016,1.818-1.839,3.845-4.864,5.081s-4.968.56-5.006-1.538" transform="translate(-125.149 -55.562)" fill="#727272"/>
      <path id="Path_31" data-name="Path 31" d="M.013,58.513c.006-2.607,5.034-3.5,4.829-12.67C4.618,36.617-.026,38.86,0,36.3c.011-1.692,2.114-4.446,5.584-6.674,8.217-5.4,18.131-8.014,19.033,11.472.891,19.321-9.094,20.307-18.649,20.253C2.454,61.331.006,60.217.013,58.513m6.565-4.4c.026,1.056.86,1.171,3.908.871,8.621-.679,11.721-6.233,11.391-13.367-.3-7.051-3.916-11.675-12.1-7.968C6.889,34.963,6.128,35.6,6.15,36.647c.027,1.265,1.261,3.338,1.405,8.4s-1.006,7.809-.977,9.075" transform="translate(0 -12.888)" fill="#656565"/>
      <path id="Path_32" data-name="Path 32" d="M55.826,46.143c-.182-3.929,4.96-4.058,4.381-17.316-.592-13.3-5.725-11.869-5.894-15.779-.169-3.722,6.077-6.521,14.5-8.209,10.054-1.911,12.646-1.277,12.817,6.475.108,4.386-1.817,9.01-6.841,9.511-2.263.235-4.221-.676-4.3-2.706-.161-3.9,8.018-4.982,7.949-7.944a3.415,3.415,0,0,0-4.191-3.132C66.692,8.292,62.138,16.337,62.667,28.49c.039.911.075,1.756.194,2.592.014.325.342.288.492-.057,1.556-4.1,4.851-6.862,8.354-7.252,2.417-.272,4.388.94,4.468,3.5.068,2.184-1.528,3.318-3.495,3.473a6.372,6.372,0,0,1-1.055-.005,17.925,17.925,0,0,0-2.89.028c-3.092.3-5.793,1.455-5.312,3.847,1.586,8.044,6.109,12.685,12.159,12.652,2.421-.026,3.889-1.4,3.834-3.336-.1-3.428-8.084-3.145-8.226-6.97-.076-2.026,1.781-3.321,4.019-3.464,4.981-.32,7.1,4.128,7.2,8.492.185,7.537-2.158,8.378-11.866,8.377-8.486,0-14.536-.267-14.719-4.229" transform="translate(-27.212 -1.968)" fill="#656565"/>
      <path id="Path_33" data-name="Path 33" d="M123.552,43.086c-.036-2.907.377-4.227.337-7.749-.018-1.6-.131-3.656-.428-6.518-1.639-15.975-7.592-18.515-7.7-23.391-.065-2.967,1.788-5.1,5.958-5.36,4.433-.26,7.321,1.881,7.331,5.26.012,3.52-3.6,4.4-3.5,13.891.117,10.26,3.6,20.73,6.548,20.74,2.951-.01,6.42-10.491,6.526-20.759.086-9.5-3.468-10.362-3.46-14,.006-3.258,2.554-5.427,7.268-5.179,4.171.239,6.115,2.373,6.053,5.345-.1,4.932-6.185,7.881-7.761,23.437-.292,2.865-.4,4.923-.421,6.525-.036,3.525.378,4.846.346,7.756-.056,4.661-2.673,5.307-8.547,5.308s-8.492-.647-8.553-5.3" transform="translate(-58.005 0.001)" fill="#656565"/>
      <path id="Path_34" data-name="Path 34" d="M186.4,44.852c.123-5.042,3.287-3.229,3.738-18.956.418-14.54-2.952-13.127-2.833-18.057.094-4.546,3.783-4.98,12.41-3.373,8.757,1.768,11.851,3.522,11.683,7.585-.2,4.443-3.323,1.963-3.914,15.634-.614,14.3,2.627,13.2,2.423,17.728-.185,4.1-3.392,4.669-11.88,4.667-8.322-.006-11.732-.638-11.626-5.227m11.931-3.027c4.431.144,6.133-3.383,6.6-14.479.453-10.891-.745-13.862-5.522-14.666-4.79-.762-6.332,1.894-6.68,13.41-.359,11.741,1.089,15.585,5.6,15.734" transform="translate(-93.396 -1.811)" fill="#656565"/>
      <path id="Path_35" data-name="Path 35" d="M240.007,51.647c.184-3.989,5.309-3.578,5.859-15.713.562-12.157-4.421-15.57-4.25-19.563.1-2.193,2.549-1.534,6.353-.04,3.719,1.5,5.958,4.072,5.949,6.327-.1,2.374,1.067,8.606,2.533,13.936,1.259,4.383,2.827,10.116,3.788,10.222,1.041.124,1.809-4.814,1.866-7.056.255-9.812-4.528-11.977-4.417-15.308.079-2.208,2.429-2.478,5.954-.244,3.517,2.256,5.618,5.012,5.63,6.7.023,2.57-4.609-.143-4.842,9.538-.22,9.664,4.817,11.216,4.828,13.8,0,1.7-2.394,1.722-6.236,1.713-3.984.019-6.442-1.362-6.356-3.6a59.9,59.9,0,0,0-2.556-15.017c-1.142-3.42-2.744-8.872-3.772-9.213-1.108-.362-1.935,5.475-2.061,8.271-.542,12.044,4.563,12.279,4.418,15.762-.093,2.272-2.6,3.743-6.521,3.76s-6.287-1.661-6.168-4.279" transform="translate(-120.257 -7.495)" fill="#656565"/>
      <path id="Path_37" data-name="Path 37" d="M.013,58.513c.006-2.607,5.034-3.5,4.829-12.67C4.618,36.617-.026,38.86,0,36.3c.011-1.692,2.114-4.446,5.584-6.674,8.217-5.4,18.131-8.014,19.033,11.472.891,19.321-9.094,20.307-18.649,20.253C2.454,61.331.006,60.217.013,58.513m6.565-4.4c.026,1.056.86,1.171,3.908.871,8.621-.679,11.721-6.233,11.391-13.367-.3-7.051-3.916-11.675-12.1-7.968C6.889,34.963,6.128,35.6,6.15,36.647c.027,1.265,1.261,3.338,1.405,8.4s-1.006,7.809-.977,9.075" transform="translate(0 -12.888)" fill="#656565"/>
    </g>
    <path id="Path_12" data-name="Path 12" d="M8.072,131.624c0-1.99,1.792-3.6,5.362-2.669,3.3.874,4.03,2.471,4.011,3.718-.016,1.2-.708,2.44-.723,3.613a4.856,4.856,0,0,0,3.243,4.422c2.232.825,2.3-1.32,2.316-2.323.089-5.152-2.419-9.022-6.142-12.677-3.558-3.559-7.719-6.6-7.724-10.2,0-2.343,2.881-4.544,9.257-4.618,7.048-.063,10.38,2.565,10.279,7.763a4.631,4.631,0,0,1-5.589,4.708c-3.349-.5-4.077-2.046-4.06-3.283.016-1.195.723-2.616.741-3.832a3.211,3.211,0,0,0-3.327-3.352,2.61,2.61,0,0,0-2.791,2.748c-.032,4.452,2.988,7.675,6.68,11.462,3.559,3.62,7.692,7.679,7.6,12.429-.05,2.993-2.718,5.209-9.149,2.552-6.8-2.9-9.966-6.611-9.984-10.46" transform="translate(-4.045 -55.564)" stroke="#000" stroke-width="1"/>
    <path id="Path_13" data-name="Path 13" d="M57.635,144.462c.068-3.518,4.164-2.5,4.392-14.3.207-10.805-.938-15.573-5.423-15.657a1.661,1.661,0,0,0-1.854,1.673c-.057,2.8,4.867,7.1,4.805,10.348-.033,1.687-1.548,2.446-3.3,2.2-3.388-.514-4.717-4.719-4.639-8.8.086-4.356,1.792-8.988,4.344-9.026,2.731-.005,4.472.726,7.4.745,2.731.017,4.7-.741,7.427-.745,2.549-.022,4.084,5.366,4.009,10.473-.07,4.78-1.57,9.307-4.989,8.958-1.765-.175-3.249-1.334-3.217-3.086.061-3.284,5.156-7.218,5.206-10.453A1.776,1.776,0,0,0,70,114.823c-4.49-.055-5.816,4.694-6.022,15.575-.227,11.854,3.9,12.52,3.834,16.3-.042,2.487-2.044,3.689-5.18,2.915s-5.047-2.84-5-5.15" transform="translate(-25.862 -55.565)" stroke="#000" stroke-width="1"/>
    <path id="Path_14" data-name="Path 14" d="M102.553,148.194c.054-3.919,4.216-3.312,4.364-16.208.161-14.127-3.964-12.848-3.91-16.787.046-3.184,5.133-4.3,11.634-4.309,7.474,0,10.592,2.506,10.59,8.034,0,7.643-3.241,15.7-8.726,15.947q-.363.014-.7,0a7.432,7.432,0,0,1-1.718-.261c-.338-.085-.643-.171-.479.267a20.893,20.893,0,0,0,1.041,1.828c3.507,5.877,4.913,7.384,7.445,7.444a18.592,18.592,0,0,0,3.313-.372c.732-.124,1.1.791,1.1,2.126,0,3.061-1.964,8.387-5.984,8.19-5.737-.341-4.356-8.041-6.954-14.52-1.607-4.025-3.3-6.829-3.276-9.535s1.808-3.712,2.792-3.684c2.688.079,1.879,3.049,4.641,3.126,2.236.058,4.017-1.4,4.031-6.08.012-4.481-1.944-6.717-4.327-6.734-3.679,0-8.421,5.151-8.538,15.437-.143,12.919,4.033,13.149,4,17.2-.021,2.662-2.035,4.221-5.224,3.84s-5.149-2.372-5.113-4.946" transform="translate(-51.386 -55.565)" stroke="#000" stroke-width="1"/>
    <path id="Path_15" data-name="Path 15" d="M154.049,149.845c0-4.1,4.187-4.049,4.138-17.271-.048-13.206-4.163-13.069-4.165-17.185,0-3.922,5.07-4.5,11.571-4.5,7.737.005,9.629.569,9.72,7.427.051,3.823-1.467,7.876-5.4,8.051a2.905,2.905,0,0,1-3.3-2.862c-.027-3.613,6.309-3.758,6.275-6.44a3.229,3.229,0,0,0-3.165-3.281c-5.787.019-9.6,6.63-9.556,18.75,0,.9.007,1.729.078,2.56,0,.32.265.313.4-.01,1.369-3.88,4.047-6.115,6.8-6.22a3.175,3.175,0,0,1,3.452,3.43,2.832,2.832,0,0,1-2.822,3.08,4.205,4.205,0,0,1-.837-.04,13.663,13.663,0,0,0-2.3-.1c-2.466.106-4.663.988-4.35,3.378,1.025,8.039,4.586,12.428,9.5,11.928a3.241,3.241,0,0,0,3.149-3.291c-.034-3-6.455-2.464-6.485-6.115a3.223,3.223,0,0,1,3.275-3.184c3.954-.263,5.584,3.524,5.636,7.357.084,6.568-1.815,7.752-9.739,8.457-6.929.555-11.879.252-11.878-3.913" transform="translate(-77.176 -55.565)" stroke="#000" stroke-width="1"/>
    <path id="Path_16" data-name="Path 16" d="M202.305,148.038c-.053-3.918,4.1-4.4,3.894-16.787-.2-12.37-4.308-12.139-4.363-16.072-.051-3.756,5.011-4.3,11.513-4.291,7.737.012,9.633.511,9.753,6.492.066,3.329-1.419,6.965-5.321,7.374-1.757.173-3.273-.675-3.306-2.407-.06-3.294,6.248-3.639,6.2-6a3.03,3.03,0,0,0-3.179-2.864c-5.785.027-9.52,6.225-9.334,17.579.014.836.027,1.612.106,2.38.005.3.266.268.392-.044,1.314-3.737,3.954-5.961,6.69-6.237,1.889-.19,3.406.761,3.447,2.826A2.947,2.947,0,0,1,216.029,133a4.508,4.508,0,0,1-.828.041,14.935,14.935,0,0,0-2.275.112c-2.442.314-4.613,1.328-4.275,3.528,1.107,7.409,4.671,10.945,9.489,9.732a3.628,3.628,0,0,0,3.067-3.4c-.047-2.64-6.361-1.333-6.428-4.665-.033-1.733,1.449-2.939,3.206-3.228,3.9-.628,5.522,2.5,5.59,5.842.106,5.722-1.722,7.106-9.5,9-6.806,1.6-11.721,2.053-11.773-1.933" transform="translate(-101.133 -55.565)" stroke="#000" stroke-width="1"/>
    <path id="Path_17" data-name="Path 17" d="M256.641,141c-.055-3.183,3.958-4.365,3.8-14.073-.139-8.922-1.432-12.8-5.914-12.7a1.665,1.665,0,0,0-1.786,1.707c.058,2.807,5.105,5.89,5.147,8.587.025,1.457-1.439,2.556-3.179,2.855-3.367.6-4.863-3.225-4.945-7.389-.088-4.451,1.433-9.134,3.985-9.1,2.732.006,4.5.638,7.422.61,2.729-.028,4.672-.618,7.4-.61,2.557.055,4.172,3.541,4.166,6.8-.005,3.058-1.385,6.375-4.7,7.142-1.718.375-3.2-.09-3.213-1.443-.037-2.64,4.883-6.3,4.879-8.42,0-.787-.719-1.3-1.82-1.254-4.474.124-5.65,4.028-5.52,12.83.148,9.635,4.121,8.139,4.144,10.911.016,1.818-1.839,3.845-4.864,5.081s-4.968.56-5.006-1.538" transform="translate(-125.149 -55.564)" stroke="#000" stroke-width="1"/>
    <path id="Path_19" data-name="Path 19" d="M55.826,46.143c-.182-3.929,4.96-4.058,4.381-17.316-.592-13.3-5.725-11.869-5.894-15.779-.169-3.722,6.077-6.521,14.5-8.209,10.054-1.911,12.646-1.277,12.817,6.475.108,4.386-1.817,9.01-6.841,9.511-2.263.235-4.221-.676-4.3-2.706-.161-3.9,8.018-4.982,7.949-7.944a3.415,3.415,0,0,0-4.191-3.132C66.692,8.292,62.138,16.337,62.667,28.49c.039.911.075,1.756.194,2.592.014.325.342.288.492-.057,1.556-4.1,4.851-6.862,8.354-7.252,2.417-.272,4.388.94,4.468,3.5.068,2.184-1.528,3.318-3.495,3.473a6.372,6.372,0,0,1-1.055-.005,17.925,17.925,0,0,0-2.89.028c-3.092.3-5.793,1.455-5.312,3.847,1.586,8.044,6.109,12.685,12.159,12.652,2.421-.026,3.889-1.4,3.834-3.336-.1-3.428-8.084-3.145-8.226-6.97-.076-2.026,1.781-3.321,4.019-3.464,4.981-.32,7.1,4.128,7.2,8.492.185,7.537-2.158,8.378-11.866,8.377-8.486,0-14.536-.267-14.719-4.229" transform="translate(-27.213 -1.971)" fill="#00cdff" stroke="#000" stroke-width="1"/>
    <path id="Path_20" data-name="Path 20" d="M123.552,43.086c-.036-2.907.377-4.227.337-7.749-.018-1.6-.131-3.656-.428-6.518-1.639-15.975-7.592-18.515-7.7-23.391-.065-2.967,1.788-5.1,5.958-5.36,4.433-.26,7.321,1.881,7.331,5.26.012,3.52-3.6,4.4-3.5,13.891.117,10.26,3.6,20.73,6.548,20.74,2.951-.01,6.42-10.491,6.526-20.759.086-9.5-3.468-10.362-3.46-14,.006-3.258,2.554-5.427,7.268-5.179,4.171.239,6.115,2.373,6.053,5.345-.1,4.932-6.185,7.881-7.761,23.437-.292,2.865-.4,4.923-.421,6.525-.036,3.525.378,4.846.346,7.756-.056,4.661-2.673,5.307-8.547,5.308s-8.492-.647-8.553-5.3" transform="translate(-58.005 -0.002)" fill="#00cdff" stroke="#000" stroke-width="1"/>
    <path id="Path_21" data-name="Path 21" d="M186.4,44.852c.123-5.042,3.287-3.229,3.738-18.956.418-14.54-2.952-13.127-2.833-18.057.094-4.546,3.783-4.98,12.41-3.373,8.757,1.768,11.851,3.522,11.683,7.585-.2,4.443-3.323,1.963-3.914,15.634-.614,14.3,2.627,13.2,2.423,17.728-.185,4.1-3.392,4.669-11.88,4.667-8.322-.006-11.732-.638-11.626-5.227m11.931-3.027c4.431.144,6.133-3.383,6.6-14.479.453-10.891-.745-13.862-5.522-14.666-4.79-.762-6.332,1.894-6.68,13.41-.359,11.741,1.089,15.585,5.6,15.734" transform="translate(-93.397 -1.814)" fill="#00cdff" stroke="#000" stroke-width="1"/>
    <path id="Path_22" data-name="Path 22" d="M240.007,51.647c.184-3.989,5.309-3.578,5.859-15.713.562-12.157-4.421-15.57-4.25-19.563.1-2.193,2.549-1.534,6.353-.04,3.719,1.5,5.958,4.072,5.949,6.327-.1,2.374,1.067,8.606,2.533,13.936,1.259,4.383,2.827,10.116,3.788,10.222,1.041.124,1.809-4.814,1.866-7.056.255-9.812-4.528-11.977-4.417-15.308.079-2.208,2.429-2.478,5.954-.244,3.517,2.256,5.618,5.012,5.63,6.7.023,2.57-4.609-.143-4.842,9.538-.22,9.664,4.817,11.216,4.828,13.8,0,1.7-2.394,1.722-6.236,1.713-3.984.019-6.442-1.362-6.356-3.6a59.9,59.9,0,0,0-2.556-15.017c-1.142-3.42-2.744-8.872-3.772-9.213-1.108-.362-1.935,5.475-2.061,8.271-.542,12.044,4.563,12.279,4.418,15.762-.093,2.272-2.6,3.743-6.521,3.76s-6.287-1.661-6.168-4.279" transform="translate(-120.258 -7.497)" fill="#00cdff" stroke="#000" stroke-width="1"/>
    <path id="Path_24" data-name="Path 24" d="M.013,58.513c.006-2.607,5.034-3.5,4.829-12.67C4.618,36.617-.026,38.86,0,36.3c.011-1.692,2.114-4.446,5.584-6.674,8.217-5.4,18.131-8.014,19.033,11.472.891,19.321-9.094,20.307-18.649,20.253C2.454,61.331.006,60.217.013,58.513m6.565-4.4c.026,1.056.86,1.171,3.908.871,8.621-.679,11.721-6.233,11.391-13.367-.3-7.051-3.916-11.675-12.1-7.968C6.889,34.963,6.128,35.6,6.15,36.647c.027,1.265,1.261,3.338,1.405,8.4s-1.006,7.809-.977,9.075" transform="translate(0 -12.89)" fill="#00cdff" stroke="#000" stroke-width="1"/>
    <rect id="Rectangle_3" data-name="Rectangle 3" width="149.014" height="98.536" transform="translate(-0.001 -0.002)" fill="none"/>
  </g>
</svg>
